<mxfile host="65bd71144e">
    <diagram id="v_jWagz3bOWHmTS7OMLX" name="Page-1">
        <mxGraphModel dx="667" dy="1096" grid="1" gridSize="10" guides="1" tooltips="1" connect="1" arrows="1" fold="1" page="1" pageScale="1" pageWidth="827" pageHeight="1169" math="0" shadow="0">
            <root>
                <mxCell id="0"/>
                <mxCell id="1" parent="0"/>
                <mxCell id="2" value="&amp;nbsp;Nominal&amp;nbsp;- One Column" style="rounded=0;whiteSpace=wrap;html=1;align=left;verticalAlign=top;fillColor=none;strokeColor=#FFFFFF;fontColor=#FFFFFF;" parent="1" vertex="1">
                    <mxGeometry x="150" y="160" width="220" height="230" as="geometry"/>
                </mxCell>
                <mxCell id="3" value="" style="group;fillColor=none;strokeColor=#FFFFFF;fontColor=#FFFFFF;" parent="1" vertex="1" connectable="0">
                    <mxGeometry x="220" y="210" width="90" height="30" as="geometry"/>
                </mxCell>
                <mxCell id="4" value="Blue" style="rounded=0;whiteSpace=wrap;html=1;fillColor=none;strokeColor=#FFFFFF;fontColor=#FFFFFF;" parent="3" vertex="1">
                    <mxGeometry width="30" height="30" as="geometry"/>
                </mxCell>
                <mxCell id="5" value="Red" style="rounded=0;whiteSpace=wrap;html=1;fillColor=none;strokeColor=#FFFFFF;fontColor=#FFFFFF;" parent="3" vertex="1">
                    <mxGeometry x="30" width="30" height="30" as="geometry"/>
                </mxCell>
                <mxCell id="6" value="pink" style="rounded=0;whiteSpace=wrap;html=1;fillColor=none;strokeColor=#FFFFFF;fontColor=#FFFFFF;" parent="3" vertex="1">
                    <mxGeometry x="60" width="30" height="30" as="geometry"/>
                </mxCell>
                <mxCell id="7" value="" style="endArrow=none;html=1;endFill=0;strokeWidth=2;fontColor=#FFFFFF;labelBackgroundColor=none;strokeColor=#FFFFFF;" parent="3" edge="1">
                    <mxGeometry width="50" height="50" relative="1" as="geometry">
                        <mxPoint x="30" y="-10" as="sourcePoint"/>
                        <mxPoint x="30" y="40" as="targetPoint"/>
                    </mxGeometry>
                </mxCell>
                <mxCell id="8" value="Blue" style="rounded=0;whiteSpace=wrap;html=1;fillColor=none;strokeColor=#FFFFFF;fontColor=#FFFFFF;" parent="1" vertex="1">
                    <mxGeometry x="185" y="270" width="30" height="30" as="geometry"/>
                </mxCell>
                <mxCell id="9" style="edgeStyle=none;html=1;fontColor=#FFFFFF;labelBackgroundColor=none;strokeColor=#FFFFFF;" parent="1" source="10" target="15" edge="1">
                    <mxGeometry relative="1" as="geometry"/>
                </mxCell>
                <mxCell id="10" value="Red" style="rounded=0;whiteSpace=wrap;html=1;fillColor=none;strokeColor=#FFFFFF;fontColor=#FFFFFF;" parent="1" vertex="1">
                    <mxGeometry x="265" y="270" width="30" height="30" as="geometry"/>
                </mxCell>
                <mxCell id="11" style="edgeStyle=none;html=1;entryX=0.5;entryY=0;entryDx=0;entryDy=0;fontColor=#FFFFFF;labelBackgroundColor=none;strokeColor=#FFFFFF;" parent="1" source="12" target="16" edge="1">
                    <mxGeometry relative="1" as="geometry"/>
                </mxCell>
                <mxCell id="12" value="pink" style="rounded=0;whiteSpace=wrap;html=1;fillColor=none;strokeColor=#FFFFFF;fontColor=#FFFFFF;" parent="1" vertex="1">
                    <mxGeometry x="295" y="270" width="30" height="30" as="geometry"/>
                </mxCell>
                <mxCell id="13" style="edgeStyle=none;html=1;entryX=0.5;entryY=0;entryDx=0;entryDy=0;fontColor=#FFFFFF;labelBackgroundColor=none;strokeColor=#FFFFFF;" parent="1" source="4" target="8" edge="1">
                    <mxGeometry relative="1" as="geometry"/>
                </mxCell>
                <mxCell id="14" style="edgeStyle=none;html=1;entryX=1;entryY=0;entryDx=0;entryDy=0;exitX=0;exitY=1;exitDx=0;exitDy=0;fontColor=#FFFFFF;labelBackgroundColor=none;strokeColor=#FFFFFF;" parent="1" source="6" target="10" edge="1">
                    <mxGeometry relative="1" as="geometry"/>
                </mxCell>
                <mxCell id="15" value="Red" style="rounded=0;whiteSpace=wrap;html=1;fillColor=none;strokeColor=#FFFFFF;fontColor=#FFFFFF;" parent="1" vertex="1">
                    <mxGeometry x="255" y="330" width="30" height="30" as="geometry"/>
                </mxCell>
                <mxCell id="16" value="pink" style="rounded=0;whiteSpace=wrap;html=1;fillColor=none;strokeColor=#FFFFFF;fontColor=#FFFFFF;" parent="1" vertex="1">
                    <mxGeometry x="315" y="330" width="30" height="30" as="geometry"/>
                </mxCell>
                <mxCell id="17" value="&amp;nbsp;Ordinal - One Column" style="rounded=0;whiteSpace=wrap;html=1;align=left;verticalAlign=top;fillColor=none;strokeColor=#FFFFFF;fontColor=#FFFFFF;" parent="1" vertex="1">
                    <mxGeometry x="390" y="160" width="220" height="230" as="geometry"/>
                </mxCell>
                <mxCell id="18" value="" style="group;fillColor=none;strokeColor=#FFFFFF;fontColor=#FFFFFF;" parent="1" vertex="1" connectable="0">
                    <mxGeometry x="460" y="210" width="90" height="30" as="geometry"/>
                </mxCell>
                <mxCell id="19" value="S" style="rounded=0;whiteSpace=wrap;html=1;fillColor=none;strokeColor=#FFFFFF;fontColor=#FFFFFF;" parent="18" vertex="1">
                    <mxGeometry width="30" height="30" as="geometry"/>
                </mxCell>
                <mxCell id="20" value="M" style="rounded=0;whiteSpace=wrap;html=1;fillColor=none;strokeColor=#FFFFFF;fontColor=#FFFFFF;" parent="18" vertex="1">
                    <mxGeometry x="30" width="30" height="30" as="geometry"/>
                </mxCell>
                <mxCell id="21" value="L" style="rounded=0;whiteSpace=wrap;html=1;fillColor=none;strokeColor=#FFFFFF;fontColor=#FFFFFF;" parent="18" vertex="1">
                    <mxGeometry x="60" width="30" height="30" as="geometry"/>
                </mxCell>
                <mxCell id="22" value="" style="endArrow=none;html=1;endFill=0;strokeWidth=2;fontColor=#FFFFFF;labelBackgroundColor=none;strokeColor=#FFFFFF;" parent="18" edge="1">
                    <mxGeometry width="50" height="50" relative="1" as="geometry">
                        <mxPoint x="30" y="-10" as="sourcePoint"/>
                        <mxPoint x="30" y="40" as="targetPoint"/>
                    </mxGeometry>
                </mxCell>
                <mxCell id="23" value="S" style="rounded=0;whiteSpace=wrap;html=1;fillColor=none;strokeColor=#FFFFFF;fontColor=#FFFFFF;" parent="1" vertex="1">
                    <mxGeometry x="425" y="270" width="30" height="30" as="geometry"/>
                </mxCell>
                <mxCell id="24" style="edgeStyle=none;html=1;fontColor=#FFFFFF;labelBackgroundColor=none;strokeColor=#FFFFFF;" parent="1" source="25" target="30" edge="1">
                    <mxGeometry relative="1" as="geometry"/>
                </mxCell>
                <mxCell id="25" value="M" style="rounded=0;whiteSpace=wrap;html=1;fillColor=none;strokeColor=#FFFFFF;fontColor=#FFFFFF;" parent="1" vertex="1">
                    <mxGeometry x="505" y="270" width="30" height="30" as="geometry"/>
                </mxCell>
                <mxCell id="26" style="edgeStyle=none;html=1;entryX=0.5;entryY=0;entryDx=0;entryDy=0;fontColor=#FFFFFF;labelBackgroundColor=none;strokeColor=#FFFFFF;" parent="1" source="27" target="31" edge="1">
                    <mxGeometry relative="1" as="geometry"/>
                </mxCell>
                <mxCell id="27" value="L" style="rounded=0;whiteSpace=wrap;html=1;fillColor=none;strokeColor=#FFFFFF;fontColor=#FFFFFF;" parent="1" vertex="1">
                    <mxGeometry x="535" y="270" width="30" height="30" as="geometry"/>
                </mxCell>
                <mxCell id="28" style="edgeStyle=none;html=1;entryX=0.5;entryY=0;entryDx=0;entryDy=0;fontColor=#FFFFFF;labelBackgroundColor=none;strokeColor=#FFFFFF;" parent="1" source="19" target="23" edge="1">
                    <mxGeometry relative="1" as="geometry"/>
                </mxCell>
                <mxCell id="29" style="edgeStyle=none;html=1;entryX=1;entryY=0;entryDx=0;entryDy=0;exitX=0;exitY=1;exitDx=0;exitDy=0;fontColor=#FFFFFF;labelBackgroundColor=none;strokeColor=#FFFFFF;" parent="1" source="21" target="25" edge="1">
                    <mxGeometry relative="1" as="geometry"/>
                </mxCell>
                <mxCell id="30" value="M" style="rounded=0;whiteSpace=wrap;html=1;fillColor=none;strokeColor=#FFFFFF;fontColor=#FFFFFF;" parent="1" vertex="1">
                    <mxGeometry x="495" y="330" width="30" height="30" as="geometry"/>
                </mxCell>
                <mxCell id="31" value="L" style="rounded=0;whiteSpace=wrap;html=1;fillColor=none;strokeColor=#FFFFFF;fontColor=#FFFFFF;" parent="1" vertex="1">
                    <mxGeometry x="555" y="330" width="30" height="30" as="geometry"/>
                </mxCell>
            </root>
        </mxGraphModel>
    </diagram>
</mxfile>